Coordinates
version=1
nRows=13
nColumns=22
inDegrees=yes

Units are S.I. units (second, meters, Newtons, ...)
If the header above contains a line with 'inDegrees', this indicates whether rotational values are in degrees (yes) or radians (no).

endheader
time	pelvis_tilt	pelvis_list	pelvis_rotation	pelvis_tx	pelvis_ty	pelvis_tz	hip_flexion_r	hip_adduction_r	hip_rotation_r	knee_angle_r	ankle_angle_r	subtalar_angle_r	hip_flexion_l	hip_adduction_l	hip_rotation_l	knee_angle_l	ankle_angle_l	subtalar_angle_l	lumbar_extension	lumbar_bending	lumbar_rotation
      0.01000000	     -0.30467106	     -4.40749260	     -3.93923646	     -1.31507463	      1.02421899	     -0.47786515	      0.66129423	      6.30465089	     -1.61195987	     -9.24939126	      8.19500603	     -4.46134641	      0.98003713	     -3.25182744	    -11.06226816	    -10.39050639	     11.95939599	     -0.61313664	    -10.38440193	      3.39115658	      1.50153072
      0.02000000	     -0.31395377	     -4.41080360	     -3.94195101	     -1.31501081	      1.02420898	     -0.47787030	      0.66556493	      6.30865503	     -1.61233491	     -9.24603560	      8.19278398	     -4.46170279	      0.98357018	     -3.25473518	    -11.06362105	    -10.38647719	     11.96084114	     -0.61311836	    -10.40194652	      3.38478878	      1.49674580
      0.03000000	     -0.31208792	     -4.41813431	     -3.94453945	     -1.31496886	      1.02421863	     -0.47786664	      0.67085586	      6.31730504	     -1.60081167	     -9.26736478	      8.17589579	     -4.46446759	      0.97930376	     -3.26316070	    -11.07321836	    -10.38954386	     11.96784950	     -0.61331850	    -10.44230694	      3.37947448	      1.47131006
      0.04000000	     -0.32314578	     -4.42187518	     -3.94650704	     -1.31490926	      1.02420744	     -0.47787282	      0.67711408	      6.32229051	     -1.60182644	     -9.26316528	      8.17546564	     -4.46490105	      0.98428908	     -3.26648364	    -11.07556316	    -10.38331095	     11.96935866	     -0.61331155	    -10.46793736	      3.37057540	      1.46811897
      0.05000000	     -0.28142148	     -4.43392881	     -3.94432192	     -1.31488898	      1.02427150	     -0.47787103	      0.64472579	      6.33302795	     -1.61349562	     -9.29189413	      8.16930461	     -4.47918680	      0.94367165	     -3.27975485	    -11.10703767	    -10.39633231	     11.98750245	     -0.61064229	    -10.56846099	      3.36296655	      1.45661791
      0.06000000	     -0.28324893	     -4.43792417	     -3.94031691	     -1.31488216	      1.02427602	     -0.47787195	      0.65600961	      6.33959634	     -1.60194338	     -9.31191272	      8.16455836	     -4.48103138	      0.94218588	     -3.28326881	    -11.10085951	    -10.38908637	     11.98550034	     -0.60873680	    -10.61700934	      3.34933166	      1.43759741
      0.07000000	     -0.28185769	     -4.44041231	     -3.92708046	     -1.31489302	      1.02427973	     -0.47787240	      0.66697329	      6.34501052	     -1.60150694	     -9.33530081	      8.16298999	     -4.48300537	      0.94449577	     -3.28729796	    -11.09562391	    -10.39050122	     11.98355282	     -0.60731656	    -10.67098016	      3.32995505	      1.42515328
      0.08000000	     -0.25825584	     -4.43589264	     -3.89729917	     -1.31491772	      1.02431187	     -0.47791730	      0.65778860	      6.33815218	     -1.65411041	     -9.36042477	      8.18228090	     -4.49190032	      0.92770236	     -3.27964996	    -11.07241226	    -10.39385275	     11.97956318	     -0.60167730	    -10.75515498	      3.30672797	      1.39441027
      0.09000000	     -0.25792842	     -4.43698431	     -3.87755185	     -1.31496546	      1.02431176	     -0.47793354	      0.67386419	      6.34165215	     -1.65051370	     -9.38597096	      8.17781438	     -4.49320234	      0.93530639	     -3.28149650	    -11.05376040	    -10.39652985	     11.97565135	     -0.60068171	    -10.81378421	      3.28910768	      1.37882036
      0.10000000	     -0.24893596	     -4.43015524	     -3.82897607	     -1.31499831	      1.02431681	     -0.47799729	      0.68075530	      6.33357912	     -1.70787772	     -9.41086587	      8.19503067	     -4.49730369	      0.93698114	     -3.27216616	    -11.00856580	    -10.39715677	     11.96738980	     -0.60083310	    -10.87801644	      3.26478531	      1.34530326
      0.11000000	     -0.25192035	     -4.42975622	     -3.79979142	     -1.31504704	      1.02430776	     -0.47803696	      0.69983461	      6.33442123	     -1.70975170	     -9.43461746	      8.19363427	     -4.49754650	      0.94956861	     -3.27169618	    -10.98587465	    -10.39937367	     11.96265864	     -0.60152194	    -10.93122927	      3.24884244	      1.33678986
      0.12000000	     -0.25455452	     -4.41921067	     -3.73816961	     -1.31506886	      1.02429500	     -0.47814140	      0.71784983	      6.32043098	     -1.78284066	     -9.45703752	      8.21706997	     -4.49824342	      0.96091975	     -3.25631532	    -10.92175032	    -10.39094523	     11.95023710	     -0.60488955	    -10.97704509	      3.22879970	      1.29968106
      0.13000000	     -0.26173474	     -4.41692604	     -3.70186944	     -1.31510911	      1.02428261	     -0.47819905	      0.73853606	      6.31824826	     -1.79391985	     -9.47492657	      8.21775566	     -4.49773358	      0.97591761	     -3.25327965	    -10.89268346	    -10.38883173	     11.94504295	     -0.60506294	    -11.02145811	      3.21489669	      1.29698285
